<svg width="44" height="44" viewBox="0 0 44 44" fill="none" xmlns="http://www.w3.org/2000/svg">
<ellipse cx="21.9993" cy="21.9994" rx="12.8333" ry="12.8333" fill="white"/>
<path d="M21.9993 3.66602C11.8793 3.66602 3.66602 11.8793 3.66602 21.9993C3.66602 32.1194 11.8793 40.3327 21.9993 40.3327C32.1194 40.3327 40.3327 32.1194 40.3327 21.9993C40.3327 11.8793 32.1194 3.66602 21.9993 3.66602ZM29.3327 23.8327H23.8327V29.3327C23.8327 30.341 23.0077 31.166 21.9993 31.166C20.991 31.166 20.166 30.341 20.166 29.3327V23.8327H14.666C13.6577 23.8327 12.8327 23.0077 12.8327 21.9993C12.8327 20.991 13.6577 20.166 14.666 20.166H20.166V14.666C20.166 13.6577 20.991 12.8327 21.9993 12.8327C23.0077 12.8327 23.8327 13.6577 23.8327 14.666V20.166H29.3327C30.341 20.166 31.166 20.991 31.166 21.9993C31.166 23.0077 30.341 23.8327 29.3327 23.8327Z" fill="#A3B7FF"/>
</svg>
