<svg width="32" height="32" viewBox="0 0 32 32" fill="none" xmlns="http://www.w3.org/2000/svg">
<path fill-rule="evenodd" clip-rule="evenodd" d="M4 8.5C4 7.39543 4.89543 6.5 6 6.5H11.9637C12.6135 6.5 13.2229 6.81573 13.5976 7.34663L14.7647 9H26C27.1046 9 28 9.89543 28 11V23C28 24.1046 27.1046 25 26 25H6C4.89543 25 4 24.1046 4 23V21.5V11V8.5ZM13.7777 14.9622C13.3775 14.467 12.6225 14.467 12.2223 14.9622L8.2542 19.8714C7.72563 20.5253 8.19107 21.5 9.03192 21.5H16H16.9681H19L23.1925 21.5C24.0292 21.5 24.496 20.5336 23.9757 19.8782L21.2832 16.4866C20.8829 15.9823 20.1172 15.9823 19.7168 16.4866L17.3845 19.4245L13.7777 14.9622Z" fill="#A3B7FF"/>
</svg>
