<svg width="22" height="25" viewBox="0 0 22 25" fill="none" xmlns="http://www.w3.org/2000/svg">
<path fill-rule="evenodd" clip-rule="evenodd" d="M5.25 0.5C5.94036 0.5 6.5 1.05964 6.5 1.75V3H15.5V1.75C15.5 1.05964 16.0596 0.5 16.75 0.5C17.4404 0.5 18 1.05964 18 1.75V3H19C20.6569 3 22 4.34315 22 6V22C22 23.6569 20.6569 25 19 25H3C1.34315 25 0 23.6569 0 22V6C0 4.34315 1.34315 3 3 3H4V1.75C4 1.05964 4.55964 0.5 5.25 0.5ZM1.6 9V22C1.6 22.7732 2.2268 23.4 3 23.4H19C19.7732 23.4 20.4 22.7732 20.4 22V9H1.6ZM13 18.1C13 18.7075 12.5075 19.2 11.9 19.2H6.1C5.49249 19.2 5 18.7075 5 18.1C5 17.4925 5.49249 17 6.1 17H11.9C12.5075 17 13 17.4925 13 18.1ZM15.9 14.2C16.5075 14.2 17 13.7075 17 13.1C17 12.4925 16.5075 12 15.9 12H6.1C5.49249 12 5 12.4925 5 13.1C5 13.7075 5.49249 14.2 6.1 14.2H15.9Z" fill="url(#paint0_linear)"/>
<defs>
<linearGradient id="paint0_linear" x1="0" y1="0.5" x2="22" y2="0.5" gradientUnits="userSpaceOnUse">
<stop stop-color="#8EC5FC"/>
<stop offset="1" stop-color="#E0C3FC"/>
</linearGradient>
</defs>
</svg>
