<svg width="40" height="40" viewBox="0 0 40 40" fill="none" xmlns="http://www.w3.org/2000/svg">
<path fill-rule="evenodd" clip-rule="evenodd" d="M17.2814 4C16.1475 4 15.0668 4.48129 14.3083 5.32414L11 9H7C4.79086 9 3 10.7909 3 13V31C3 33.2091 4.79086 35 7 35H33C35.2091 35 37 33.2091 37 31V13C37 10.7909 35.2091 9 33 9H30L26.6917 5.32414C25.9332 4.48129 24.8525 4 23.7186 4H17.2814ZM27.5 22C27.5 26.1421 24.1421 29.5 20 29.5C15.8579 29.5 12.5 26.1421 12.5 22C12.5 17.8579 15.8579 14.5 20 14.5C24.1421 14.5 27.5 17.8579 27.5 22ZM20 27C22.7614 27 25 24.7614 25 22C25 19.2386 22.7614 17 20 17C17.2386 17 15 19.2386 15 22C15 24.7614 17.2386 27 20 27ZM31 12C30.4477 12 30 12.4477 30 13C30 13.5523 30.4477 14 31 14H33C33.5523 14 34 13.5523 34 13C34 12.4477 33.5523 12 33 12H31Z" fill="white"/>
</svg>
