<svg width="16" height="16" viewBox="0 0 16 16" fill="none" xmlns="http://www.w3.org/2000/svg">
<path d="M8.00003 1.3335C4.32003 1.3335 1.33336 4.32016 1.33336 8.00016C1.33336 11.6802 4.32003 14.6668 8.00003 14.6668C11.68 14.6668 14.6667 11.6802 14.6667 8.00016C14.6667 4.32016 11.68 1.3335 8.00003 1.3335Z" fill="#A8D2FC"/>
<path d="M8.00003 1.3335C4.32003 1.3335 1.33336 4.32016 1.33336 8.00016C1.33336 11.6802 4.32003 14.6668 8.00003 14.6668C11.68 14.6668 14.6667 11.6802 14.6667 8.00016C14.6667 4.32016 11.68 1.3335 8.00003 1.3335Z" fill="url(#paint0_linear)" fill-opacity="0.3"/>
<path d="M8.14 6.23H7.74C7.62954 6.23 7.54 6.31954 7.54 6.43V8.14C7.54 8.25046 7.62954 8.34 7.74 8.34H8.05C8.86333 8.34 9.27 7.97 9.27 7.23C9.27 6.56333 8.89333 6.23 8.14 6.23ZM8.32 9.56H7.74C7.62954 9.56 7.54 9.64954 7.54 9.76V11.54C7.54 11.6505 7.45046 11.74 7.34 11.74H6.2C6.08954 11.74 6 11.6505 6 11.54V5.2C6 5.08954 6.08954 5 6.2 5H8.32C9.06667 5 9.67 5.21 10.13 5.63C10.5967 6.05 10.83 6.60667 10.83 7.3C10.83 7.99333 10.5867 8.54333 10.1 8.95C9.62 9.35667 9.02667 9.56 8.32 9.56Z" fill="white"/>
<path d="M8.00003 1.3335C4.32003 1.3335 1.33336 4.32016 1.33336 8.00016C1.33336 11.6802 4.32003 14.6668 8.00003 14.6668C11.68 14.6668 14.6667 11.6802 14.6667 8.00016C14.6667 4.32016 11.68 1.3335 8.00003 1.3335Z" fill="#F2C94C"/>
<path d="M8.14 6.23H7.74C7.62954 6.23 7.54 6.31954 7.54 6.43V8.14C7.54 8.25046 7.62954 8.34 7.74 8.34H8.05C8.86333 8.34 9.27 7.97 9.27 7.23C9.27 6.56333 8.89333 6.23 8.14 6.23ZM8.32 9.56H7.74C7.62954 9.56 7.54 9.64954 7.54 9.76V11.54C7.54 11.6505 7.45046 11.74 7.34 11.74H6.2C6.08954 11.74 6 11.6505 6 11.54V5.2C6 5.08954 6.08954 5 6.2 5H8.32C9.06667 5 9.67 5.21 10.13 5.63C10.5967 6.05 10.83 6.60667 10.83 7.3C10.83 7.99333 10.5867 8.54333 10.1 8.95C9.62 9.35667 9.02667 9.56 8.32 9.56Z" fill="white"/>
<defs>
<linearGradient id="paint0_linear" x1="8.00003" y1="1.3335" x2="8.00003" y2="14.6668" gradientUnits="userSpaceOnUse">
<stop stop-color="white"/>
<stop offset="1" stop-color="white" stop-opacity="0"/>
</linearGradient>
</defs>
</svg>
