<svg width="32" height="32" viewBox="0 0 32 32" fill="none" xmlns="http://www.w3.org/2000/svg">
<rect x="12" y="3" width="8" height="16" rx="4" fill="#A3B7FF"/>
<path d="M9.22573 16.7549C9.09034 16.0779 8.4318 15.6389 7.75485 15.7743C7.07791 15.9097 6.63888 16.5682 6.77427 17.2451L9.22573 16.7549ZM25.2256 17.2451C25.361 16.5682 24.922 15.9096 24.245 15.7743C23.5681 15.6389 22.9095 16.0779 22.7742 16.7549L25.2256 17.2451ZM6.77427 17.2451C7.36993 20.2234 10.3024 24.25 16 24.25V21.75C11.6978 21.75 9.63007 18.7766 9.22573 16.7549L6.77427 17.2451ZM16 24.25C21.6976 24.25 24.6301 20.2234 25.2256 17.2451L22.7742 16.7549C22.3699 18.7766 20.3022 21.75 16 21.75V24.25Z" fill="#A3B7FF"/>
<line x1="16" y1="27.75" x2="16" y2="24.25" stroke="#A3B7FF" stroke-width="2.5" stroke-linecap="round"/>
</svg>
