<svg width="100" height="100" viewBox="0 0 100 100" fill="none" xmlns="http://www.w3.org/2000/svg">
<g opacity="0.5" clip-path="url(#clip0)">
<g clip-path="url(#clip1)">
<path fill-rule="evenodd" clip-rule="evenodd" d="M65.9642 60.4313C65.2188 65.0847 64.8533 70.2392 66.9449 72.4042C70.6983 76.2894 76.3287 82.1165 80.1479 82.1827C83.9668 82.2489 90.8391 77.2892 91.7373 74.7418C93.7457 69.0458 91.869 67.1033 89.9922 65.1607C85.8831 60.9075 80.61 57.7788 76.0519 55.8072C74.7585 55.0037 73.3375 54.2834 71.766 53.7455C67.0129 52.1186 61.3179 50.8367 55.2071 50.2904C43.2595 49.2222 29.2531 50.9344 17.6259 58.9557C14.9282 60.5795 12.2829 62.6024 10.0275 65.064C8.11762 66.9739 6.2077 68.8839 8.11762 74.6136C8.97177 77.1761 15.7575 82.2535 19.577 82.2531C23.3968 82.2527 29.1268 76.5236 32.9466 72.7037C35.1743 70.476 34.7677 64.9282 34.0384 60.1016C40.7355 58.1603 47.8215 57.7655 54.4855 58.3613C58.6169 58.7307 62.5171 59.4763 65.9642 60.4313Z" fill="white" fill-opacity="0.5"/>
<path d="M65.9642 60.4313L67.4453 60.6685C67.5661 59.9142 67.1008 59.1896 66.3646 58.9857L65.9642 60.4313ZM66.9449 72.4042L65.8661 73.4465L65.8661 73.4465L66.9449 72.4042ZM80.1479 82.1827L80.1739 80.6829L80.1739 80.6829L80.1479 82.1827ZM91.7373 74.7418L90.3226 74.243L90.3226 74.243L91.7373 74.7418ZM89.9922 65.1607L91.071 64.1185L91.071 64.1185L89.9922 65.1607ZM76.0519 55.8072L75.2604 57.0814C75.3231 57.1203 75.3886 57.1546 75.4564 57.1839L76.0519 55.8072ZM71.766 53.7455L72.2517 52.3263L71.766 53.7455ZM55.2071 50.2904L55.3406 48.7963L55.2071 50.2904ZM17.6259 58.9557L18.3994 60.2408C18.426 60.2248 18.4521 60.208 18.4777 60.1904L17.6259 58.9557ZM10.0275 65.064L11.0882 66.1247C11.1037 66.1092 11.1188 66.0934 11.1335 66.0773L10.0275 65.064ZM8.11762 74.6136L6.6946 75.088L6.6946 75.088L8.11762 74.6136ZM19.577 82.2531L19.5771 83.7531H19.5772L19.577 82.2531ZM34.0384 60.1016L33.6208 58.6609C32.8985 58.8703 32.4429 59.5821 32.5553 60.3257L34.0384 60.1016ZM54.4855 58.3613L54.619 56.8673L54.4855 58.3613ZM64.483 60.194C64.1056 62.5506 63.8094 65.1167 63.8916 67.4048C63.971 69.6161 64.4116 71.9409 65.8661 73.4465L68.0237 71.362C67.3866 70.7026 66.9641 69.3676 66.8897 67.2971C66.8181 65.3033 67.0774 62.9654 67.4453 60.6685L64.483 60.194ZM65.8661 73.4465C67.7318 75.3777 70.1354 77.8676 72.5647 79.8806C73.7809 80.8884 75.0416 81.809 76.2801 82.4884C77.4996 83.1573 78.818 83.6599 80.1219 83.6825L80.1739 80.6829C79.5682 80.6724 78.7506 80.4218 77.7229 79.8581C76.7143 79.3048 75.6167 78.5135 74.4788 77.5705C72.1997 75.6821 69.9113 73.3159 68.0237 71.362L65.8661 73.4465ZM80.1219 83.6825C81.3715 83.7042 82.7368 83.3229 84.0179 82.7919C85.3225 82.2511 86.6553 81.5063 87.8742 80.6875C89.093 79.8689 90.2318 78.9536 91.14 78.0543C92.0069 77.1958 92.8099 76.2106 93.1519 75.2406L90.3226 74.243C90.2156 74.5467 89.8227 75.1368 89.0291 75.9226C88.2767 76.6676 87.2904 77.4658 86.2015 78.1972C85.1127 78.9285 83.9552 79.5704 82.8692 80.0206C81.7596 80.4805 80.8338 80.6944 80.1739 80.6829L80.1219 83.6825ZM93.1519 75.2406C94.2192 72.2136 94.3365 69.9518 93.7527 68.094C93.1791 66.269 91.9831 65.0626 91.071 64.1185L88.9135 66.2029C89.8781 67.2014 90.5588 67.9376 90.8907 68.9935C91.2122 70.0166 91.2637 71.5741 90.3226 74.243L93.1519 75.2406ZM91.071 64.1185C86.786 59.6831 81.3281 56.4552 76.6474 54.4305L75.4564 57.1839C79.8918 59.1025 84.9803 62.1318 88.9135 66.2029L91.071 64.1185ZM71.2802 55.1646C72.7251 55.6592 74.0438 56.3256 75.2604 57.0814L76.8434 54.533C75.4732 53.6819 73.9498 52.9075 72.2517 52.3263L71.2802 55.1646ZM55.0735 51.7844C61.0639 52.32 66.6406 53.5766 71.2802 55.1646L72.2517 52.3263C67.3852 50.6606 61.572 49.3535 55.3406 48.7963L55.0735 51.7844ZM18.4777 60.1904C29.7222 52.4331 43.3399 50.7353 55.0735 51.7844L55.3406 48.7963C43.1792 47.709 28.784 49.4357 16.7741 57.721L18.4777 60.1904ZM11.1335 66.0773C13.2728 63.7423 15.7986 61.8063 18.3994 60.2408L16.8523 57.6705C14.0578 59.3526 11.2929 61.4624 8.92156 64.0507L11.1335 66.0773ZM9.54065 74.1393C8.64572 71.4545 8.72402 69.8982 9.06316 68.8807C9.41318 67.8307 10.1065 67.1063 11.0882 66.1247L8.96689 64.0033C8.03864 64.9316 6.82206 66.1172 6.21711 67.932C5.6013 69.7795 5.6796 72.043 6.6946 75.088L9.54065 74.1393ZM19.5768 80.7531C18.9169 80.7532 17.9949 80.5234 16.8934 80.0444C15.8153 79.5756 14.669 78.9138 13.593 78.1639C12.5169 77.4138 11.5445 76.5988 10.805 75.8409C10.0251 75.0415 9.64247 74.4448 9.54065 74.1393L6.6946 75.088C7.01985 76.0637 7.80571 77.0626 8.65772 77.9359C9.55023 78.8507 10.6731 79.7855 11.8776 80.625C13.0822 81.4647 14.402 82.2324 15.6971 82.7956C16.9688 83.3486 18.3274 83.7533 19.5771 83.7531L19.5768 80.7531ZM31.886 71.643C29.9649 73.5641 27.6361 75.8905 25.3248 77.7394C24.1708 78.6625 23.0597 79.4349 22.0417 79.9707C21.0045 80.5166 20.1827 80.7531 19.5768 80.7531L19.5772 83.7531C20.8812 83.753 22.2081 83.2732 23.4389 82.6254C24.689 81.9675 25.9654 81.0687 27.1988 80.0821C29.6624 78.1113 32.1085 75.6631 34.0073 73.7644L31.886 71.643ZM32.5553 60.3257C32.9161 62.7139 33.1827 65.1957 33.1024 67.3207C33.0189 69.5334 32.569 70.96 31.886 71.643L34.0073 73.7644C35.5519 72.2197 36.0125 69.7586 36.1003 67.4338C36.1914 65.0213 35.89 62.3159 35.5216 59.8775L32.5553 60.3257ZM54.619 56.8673C47.8103 56.2585 40.5322 56.6575 33.6208 58.6609L34.456 61.5423C40.9389 59.6631 47.8327 59.2725 54.3519 59.8553L54.619 56.8673ZM66.3646 58.9857C62.8329 58.0073 58.8434 57.245 54.619 56.8673L54.3519 59.8553C58.3903 60.2164 62.2013 60.9454 65.5637 61.8768L66.3646 58.9857Z" fill="#D2DCFF"/>
</g>
<line x1="50.5" y1="25.5" x2="50.5" y2="12.5" stroke="#D2DCFF" stroke-width="5" stroke-linecap="round"/>
<path d="M68.5 30.4854L76.9853 22.0001" stroke="#D2DCFF" stroke-width="5" stroke-linecap="round"/>
<path d="M23.0147 22L31.5 30.4853" stroke="#D2DCFF" stroke-width="5" stroke-linecap="round"/>
</g>
<defs>
<clipPath id="clip0">
<rect width="100" height="100" fill="white"/>
</clipPath>
<clipPath id="clip1">
<rect width="86.4333" height="86.4333" fill="white" transform="translate(111.235 71.1174) rotate(135)"/>
</clipPath>
</defs>
</svg>
