<svg width="60" height="60" viewBox="0 0 60 60" fill="none" xmlns="http://www.w3.org/2000/svg">
<path fill-rule="evenodd" clip-rule="evenodd" d="M9.5 21.3515C9.5 19.5006 11.0297 18.0001 12.9167 18.0001H23.1046C24.2148 18.0001 25.2557 18.5292 25.8959 19.4188L27.8897 22.1893H47.0833C48.9703 22.1893 50.5 23.6898 50.5 25.5407V45.6488C50.5 47.4997 48.9703 49.0001 47.0833 49.0001H12.9167C11.0297 49.0001 9.5 47.4997 9.5 45.6488V43.1353V25.5407V21.3515ZM26.2036 32.18C25.5198 31.3502 24.2301 31.3502 23.5464 32.18L16.7676 40.4062C15.8646 41.502 16.6597 43.1353 18.0962 43.1353H30H31.6538H35.125H42.2872C43.7166 43.1353 44.5139 41.5159 43.6252 40.4177L39.0255 34.7344C38.3415 33.8893 37.0335 33.8893 36.3495 34.7344L32.3652 39.6573L26.2036 32.18Z" fill="white"/>
<line x1="6.61925" y1="12.119" x2="7.99408" y2="14.5003" stroke="white" stroke-width="1.5" stroke-linecap="round"/>
<line x1="12.2578" y1="13.1864" x2="12.9694" y2="10.5304" stroke="white" stroke-width="1.5" stroke-linecap="round"/>
<path d="M4.8267 17.3138L2.36378 16.6539" stroke="white" stroke-width="1.5" stroke-linecap="round"/>
</svg>
