<svg width="32" height="32" viewBox="0 0 32 32" fill="none" xmlns="http://www.w3.org/2000/svg">
<path d="M25.6004 14.4533V10.6667C23.8271 10.6667 22.4737 10.1933 21.6004 9.27332C20.704 8.22335 20.2019 6.89369 20.1804 5.51332V5.23999L16.6004 5.15332C16.6004 5.15332 16.6004 5.30665 16.6004 5.51332V20.5333C16.4776 21.2044 16.1519 21.8216 15.6672 22.3016C15.1825 22.7817 14.5621 23.1014 13.89 23.2178C13.2178 23.3341 12.5261 23.2414 11.9082 22.9522C11.2904 22.6629 10.7762 22.1911 10.435 21.6003C10.0938 21.0096 9.94211 20.3284 10.0004 19.6487C10.0586 18.969 10.324 18.3235 10.7607 17.7995C11.1974 17.2754 11.7843 16.8979 12.4424 16.718C13.1004 16.538 13.7978 16.5643 14.4404 16.7933V13.1267C14.0657 13.0653 13.6867 13.034 13.3071 13.0333C11.9411 13.0333 10.6057 13.4384 9.46992 14.1973C8.33413 14.9562 7.44888 16.0349 6.92613 17.2969C6.40338 18.5589 6.26661 19.9476 6.5331 21.2874C6.7996 22.6272 7.45739 23.8578 8.42331 24.8237C9.38922 25.7897 10.6199 26.4474 11.9596 26.7139C13.2994 26.9804 14.6881 26.8437 15.9501 26.3209C17.2122 25.7982 18.2908 24.9129 19.0497 23.7771C19.8087 22.6413 20.2137 21.306 20.2137 19.94C20.213 19.6569 20.1952 19.3742 20.1604 19.0933V12.9933C21.7883 14.0099 23.6822 14.5183 25.6004 14.4533Z" fill="#484848"/>
</svg>
