<svg width="41" height="53" viewBox="0 0 41 53" fill="none" xmlns="http://www.w3.org/2000/svg">
<path fill-rule="evenodd" clip-rule="evenodd" d="M13.0011 44.4999C14.8015 44.3208 18.5201 42.5703 19 37C19.4799 42.5703 23.1985 44.3208 24.9989 44.4999H25C24.9998 44.5 24.9996 44.5 24.9994 44.5C24.9996 44.5 24.9998 44.5 25 44.5001H24.9989C23.1985 44.6792 19.4799 46.4297 19 52C18.5201 46.4297 14.8015 44.6792 13.0011 44.5001H13L13.0006 44.5L13 44.4999H13.0011Z" fill="#E7FFBF"/>
<path d="M19 37L19.4982 36.9571C19.4759 36.6985 19.2595 36.5 19 36.5C18.7405 36.5 18.5241 36.6985 18.5018 36.9571L19 37ZM13.0011 44.4999V44.9999C13.0176 44.9999 13.0342 44.9991 13.0506 44.9975L13.0011 44.4999ZM24.9989 44.4999L24.9494 44.9975C24.9658 44.9991 24.9824 44.9999 24.9989 44.9999V44.4999ZM25 44.4999L25.049 44.9975C25.3143 44.9714 25.5125 44.7417 25.4994 44.4754C25.4863 44.2091 25.2666 43.9999 25 43.9999V44.4999ZM24.9994 44.5L24.9505 44.0024C24.6945 44.0276 24.4994 44.2428 24.4994 44.5C24.4994 44.7572 24.6945 44.9724 24.9505 44.9976L24.9994 44.5ZM25 44.5001V45.0001C25.2666 45.0001 25.4863 44.7909 25.4994 44.5246C25.5125 44.2583 25.3143 44.0286 25.049 44.0025L25 44.5001ZM24.9989 44.5001V44.0001C24.9824 44.0001 24.9658 44.0009 24.9494 44.0025L24.9989 44.5001ZM19 52L18.5018 52.0429C18.5241 52.3015 18.7405 52.5 19 52.5C19.2595 52.5 19.4759 52.3015 19.4982 52.0429L19 52ZM13.0011 44.5001L13.0506 44.0025C13.0342 44.0009 13.0176 44.0001 13.0011 44.0001V44.5001ZM13 44.5001L12.9507 44.0025C12.6854 44.0288 12.4874 44.2585 12.5006 44.5247C12.5138 44.791 12.7335 45.0001 13 45.0001V44.5001ZM13.0006 44.5L13.0499 44.9976C13.3055 44.9722 13.5003 44.7573 13.5006 44.5004C13.5008 44.2436 13.3063 44.0283 13.0507 44.0025L13.0006 44.5ZM13 44.4999V43.9999C12.7336 43.9999 12.514 44.2088 12.5006 44.4748C12.4872 44.7409 12.6848 44.9707 12.9498 44.9974L13 44.4999ZM18.5018 36.9571C18.0449 42.2612 14.54 43.8443 12.9516 44.0024L13.0506 44.9975C15.0631 44.7972 18.9953 42.8795 19.4982 37.0429L18.5018 36.9571ZM25.0484 44.0024C23.46 43.8443 19.9551 42.2612 19.4982 36.9571L18.5018 37.0429C19.0047 42.8795 22.9369 44.7972 24.9494 44.9975L25.0484 44.0024ZM25 43.9999H24.9989V44.9999H25V43.9999ZM25.0484 44.9976L25.049 44.9975L24.951 44.0024L24.9505 44.0024L25.0484 44.9976ZM25.049 44.0025L25.0484 44.0024L24.9505 44.9976L24.951 44.9977L25.049 44.0025ZM24.9989 45.0001H25V44.0001H24.9989V45.0001ZM19.4982 52.0429C19.9551 46.7388 23.46 45.1557 25.0484 44.9976L24.9494 44.0025C22.9369 44.2028 19.0047 46.1205 18.5018 51.9571L19.4982 52.0429ZM12.9516 44.9976C14.54 45.1557 18.0449 46.7388 18.5018 52.0429L19.4982 51.9571C18.9953 46.1205 15.0631 44.2028 13.0506 44.0025L12.9516 44.9976ZM13 45.0001H13.0011V44.0001H13V45.0001ZM12.9512 44.0024L12.9507 44.0025L13.0493 44.9976L13.0499 44.9976L12.9512 44.0024ZM12.9498 44.9974L12.9504 44.9975L13.0507 44.0025L13.0502 44.0025L12.9498 44.9974ZM13.0011 43.9999H13V44.9999H13.0011V43.9999Z" fill="#E7FFBF"/>
<path fill-rule="evenodd" clip-rule="evenodd" d="M33 27.5C33 27.2239 33.1959 27 33.4375 27H39.5625C39.8041 27 40 27.2239 40 27.5C40 27.7761 39.8041 28 39.5625 28H33.4375C33.1959 28 33 27.7761 33 27.5Z" fill="#D2FCFF" stroke="#D2FCFF" stroke-linecap="round"/>
<path fill-rule="evenodd" clip-rule="evenodd" d="M36.5 24C36.7761 24 37 24.1628 37 24.3636L37 31.6364C37 31.8372 36.7761 32 36.5 32C36.2239 32 36 31.8372 36 31.6364L36 24.3636C36 24.1628 36.2239 24 36.5 24Z" fill="#D2FCFF" stroke="#D2FCFF" stroke-linecap="round"/>
<path fill-rule="evenodd" clip-rule="evenodd" d="M1.00289 12.0633C3.70397 11.7984 9.28025 9.21576 10 1C10.7197 9.21576 16.296 11.7984 18.9971 12.0633H19C18.9995 12.0634 18.999 12.0634 18.9986 12.0635C18.999 12.0635 18.9995 12.0636 19 12.0636H18.9971C16.296 12.3286 10.7197 14.9112 10 23.127C9.28025 14.9112 3.70397 12.3286 1.00289 12.0636H1L1.00144 12.0635L1 12.0633H1.00289Z" fill="#FFFCBF"/>
<path d="M10 1L10.5977 0.947637C10.5706 0.637748 10.3111 0.4 10 0.4C9.68892 0.4 9.42943 0.637748 9.40229 0.947637L10 1ZM1.00289 12.0633V12.6633C1.02245 12.6633 1.042 12.6624 1.06146 12.6605L1.00289 12.0633ZM18.9971 12.0633L18.9385 12.6605C18.958 12.6624 18.9775 12.6633 18.9971 12.6633V12.0633ZM19 12.0633L19.0581 12.6605C19.3766 12.6295 19.6148 12.354 19.5993 12.0343C19.5838 11.7146 19.3201 11.4633 19 11.4633V12.0633ZM18.9986 12.0635L18.9405 11.4663C18.6331 11.4962 18.3986 11.7546 18.3986 12.0635C18.3986 12.3724 18.6331 12.6308 18.9405 12.6607L18.9986 12.0635ZM19 12.0636V12.6636C19.3201 12.6636 19.5838 12.4124 19.5993 12.0927C19.6148 11.773 19.3766 11.4974 19.0581 11.4664L19 12.0636ZM18.9971 12.0636V11.4636C18.9775 11.4636 18.958 11.4646 18.9385 11.4665L18.9971 12.0636ZM10 23.127L9.40229 23.1793C9.42943 23.4892 9.68892 23.727 10 23.727C10.3111 23.727 10.5706 23.4892 10.5977 23.1793L10 23.127ZM1.00289 12.0636L1.06146 11.4665C1.042 11.4646 1.02245 11.4636 1.00289 11.4636V12.0636ZM1 12.0636L0.941482 11.4665C0.623024 11.4977 0.385093 11.7733 0.400716 12.0929C0.416338 12.4125 0.680017 12.6636 1 12.6636L1 12.0636ZM1.00144 12.0635L1.05996 12.6606C1.36719 12.6305 1.60144 12.3722 1.60144 12.0635C1.60144 11.7548 1.36719 11.4964 1.05996 11.4663L1.00144 12.0635ZM1 12.0633V11.4633C0.680017 11.4633 0.416338 11.7144 0.400716 12.034C0.385093 12.3536 0.623024 12.6293 0.941482 12.6605L1 12.0633ZM9.40229 0.947637C8.71112 8.83723 3.39828 11.2255 0.944307 11.4662L1.06146 12.6605C4.00967 12.3713 9.84939 9.59429 10.5977 1.05236L9.40229 0.947637ZM19.0557 11.4662C16.6017 11.2255 11.2889 8.83723 10.5977 0.947637L9.40229 1.05236C10.1506 9.59429 15.9903 12.3713 18.9385 12.6605L19.0557 11.4662ZM19 11.4633H18.9971V12.6633H19V11.4633ZM19.0566 12.6607C19.0573 12.6606 19.0579 12.6605 19.058 12.6605C19.0583 12.6605 19.0582 12.6605 19.0581 12.6605L18.9419 11.4662C18.9413 11.4662 18.9407 11.4663 18.9405 11.4663C18.9402 11.4663 18.9403 11.4663 18.9405 11.4663L19.0566 12.6607ZM19.0581 11.4664C19.0582 11.4664 19.0583 11.4665 19.058 11.4664C19.0579 11.4664 19.0573 11.4664 19.0566 11.4663L18.9405 12.6607C18.9403 12.6606 18.9402 12.6606 18.9405 12.6607C18.9407 12.6607 18.9413 12.6607 18.9419 12.6608L19.0581 11.4664ZM18.9971 12.6636H19V11.4636H18.9971V12.6636ZM10.5977 23.1793C11.2889 15.2897 16.6017 12.9015 19.0557 12.6608L18.9385 11.4665C15.9903 11.7557 10.1506 14.5327 9.40229 23.0746L10.5977 23.1793ZM0.944307 12.6608C3.39828 12.9015 8.71112 15.2897 9.40229 23.1793L10.5977 23.0746C9.84939 14.5327 4.00967 11.7557 1.06146 11.4665L0.944307 12.6608ZM1 12.6636H1.00289V11.4636H1V12.6636ZM0.942922 11.4663L0.941482 11.4665L1.05852 12.6608L1.05996 12.6606L0.942922 11.4663ZM0.941482 12.6605L0.942922 12.6606L1.05996 11.4663L1.05852 11.4662L0.941482 12.6605ZM1.00289 11.4633H1V12.6633H1.00289V11.4633Z" fill="#FFFCBF"/>
</svg>
