<svg width="39" height="59" viewBox="0 0 39 59" fill="none" xmlns="http://www.w3.org/2000/svg">
<path fill-rule="evenodd" clip-rule="evenodd" d="M1 26.5C1 26.2239 1.19588 26 1.4375 26H7.5625C7.80412 26 8 26.2239 8 26.5C8 26.7761 7.80412 27 7.5625 27H1.4375C1.19588 27 1 26.7761 1 26.5Z" fill="#A8D2FC" stroke="#E7FFBF" stroke-linecap="round"/>
<path fill-rule="evenodd" clip-rule="evenodd" d="M4.5 22C4.77614 22 5 22.1832 5 22.4091L5 30.5909C5 30.8168 4.77614 31 4.5 31C4.22386 31 4 30.8168 4 30.5909L4 22.4091C4 22.1832 4.22386 22 4.5 22Z" fill="#A8D2FC" stroke="#E7FFBF" stroke-linecap="round"/>
<path fill-rule="evenodd" clip-rule="evenodd" d="M8.00124 50.4999C9.9517 50.3207 13.9801 48.5703 14.5 43C15.0199 48.5703 19.0483 50.3207 20.9988 50.4999H21C20.9998 50.5 20.9996 50.5 20.9994 50.5C20.9996 50.5 20.9998 50.5 21 50.5001H20.9988C19.0483 50.6793 15.0199 52.4297 14.5 58C13.9801 52.4297 9.9517 50.6793 8.00124 50.5001H8L8.00061 50.5L8 50.4999H8.00124Z" fill="#FFFCBF"/>
<path d="M14.5 43L14.9978 42.9535C14.9738 42.6965 14.7581 42.5 14.5 42.5C14.2419 42.5 14.0262 42.6965 14.0022 42.9535L14.5 43ZM8.00124 50.4999V50.9999C8.01651 50.9999 8.03177 50.9992 8.04698 50.9978L8.00124 50.4999ZM20.9988 50.4999L20.953 50.9978C20.9682 50.9992 20.9835 50.9999 20.9988 50.9999V50.4999ZM21 50.4999L21.0452 50.9979C21.3114 50.9737 21.5116 50.7444 21.4995 50.4773C21.4874 50.2103 21.2673 49.9999 21 49.9999V50.4999ZM20.9994 50.5L20.9542 50.002C20.6966 50.0254 20.4994 50.2414 20.4994 50.5C20.4994 50.7586 20.6966 50.9746 20.9542 50.998L20.9994 50.5ZM21 50.5001V51.0001C21.2673 51.0001 21.4874 50.7897 21.4995 50.5227C21.5116 50.2556 21.3114 50.0262 21.0452 50.0021L21 50.5001ZM20.9988 50.5001V50.0001C20.9835 50.0001 20.9682 50.0008 20.953 50.0022L20.9988 50.5001ZM14.5 58L14.0022 58.0465C14.0262 58.3035 14.2419 58.5 14.5 58.5C14.7581 58.5 14.9738 58.3035 14.9978 58.0465L14.5 58ZM8.00124 50.5001L8.04698 50.0022C8.03177 50.0008 8.01651 50.0001 8.00124 50.0001V50.5001ZM8 50.5001L7.95443 50.0021C7.68827 50.0265 7.48833 50.2559 7.50052 50.5229C7.51271 50.7899 7.73273 51.0001 8 51.0001L8 50.5001ZM8.00061 50.5L8.04619 50.9979C8.30345 50.9744 8.50042 50.7587 8.50061 50.5004C8.50081 50.242 8.30418 50.0261 8.04695 50.0022L8.00061 50.5ZM8 50.4999V49.9999C7.73288 49.9999 7.51293 50.2099 7.50054 50.4767C7.48815 50.7436 7.68769 50.973 7.95366 50.9978L8 50.4999ZM14.0022 42.9535C13.5096 48.2313 9.72332 49.8396 7.95549 50.002L8.04698 50.9978C10.1801 50.8019 14.4506 48.9093 14.9978 43.0465L14.0022 42.9535ZM21.0445 50.002C19.2767 49.8396 15.4904 48.2313 14.9978 42.9535L14.0022 43.0465C14.5494 48.9093 18.8199 50.8019 20.953 50.9978L21.0445 50.002ZM21 49.9999H20.9988V50.9999H21V49.9999ZM21.0445 50.998L21.0452 50.9979L20.9548 50.002L20.9542 50.002L21.0445 50.998ZM21.0452 50.0021L21.0445 50.002L20.9542 50.998L20.9548 50.998L21.0452 50.0021ZM20.9988 51.0001H21V50.0001H20.9988V51.0001ZM14.9978 58.0465C15.4904 52.7687 19.2767 51.1604 21.0445 50.998L20.953 50.0022C18.8199 50.1981 14.5494 52.0907 14.0022 57.9535L14.9978 58.0465ZM7.95549 50.998C9.72332 51.1604 13.5096 52.7687 14.0022 58.0465L14.9978 57.9535C14.4506 52.0907 10.1801 50.1981 8.04698 50.0022L7.95549 50.998ZM8 51.0001H8.00124V50.0001H8V51.0001ZM7.95504 50.0021L7.95443 50.0021L8.04557 50.998L8.04619 50.9979L7.95504 50.0021ZM7.95366 50.9978L7.95428 50.9978L8.04695 50.0022L8.04634 50.0021L7.95366 50.9978ZM8.00124 49.9999H8V50.9999H8.00124V49.9999Z" fill="#FFFCBF"/>
<path fill-rule="evenodd" clip-rule="evenodd" d="M19.7845 12.5453C22.546 12.2695 28.2495 9.57485 28.9856 1V12.5453V12.5455V24.0908C28.2495 15.516 22.546 12.8213 19.7845 12.5455H19.7827L19.7836 12.5454L19.7827 12.5453H19.7845ZM38.1877 12.5454C38.1879 12.5454 38.1882 12.5455 38.1885 12.5455H38.1868C35.4253 12.8213 29.7217 15.516 28.9856 24.0908V12.5455V12.5453V1C29.7217 9.57485 35.4253 12.2695 38.1868 12.5453H38.1885C38.1882 12.5454 38.1879 12.5454 38.1877 12.5454Z" fill="#D2FCFF"/>
<path d="M28.9856 1H29.6856C29.6856 0.625054 29.3902 0.31669 29.0156 0.300642C28.641 0.284593 28.3202 0.566559 28.2882 0.940131L28.9856 1ZM19.7845 12.5453V13.2453C19.8077 13.2453 19.8309 13.2442 19.854 13.2419L19.7845 12.5453ZM28.9856 24.0908L28.2882 24.1507C28.3202 24.5243 28.641 24.8062 29.0156 24.7902C29.3902 24.7741 29.6856 24.4658 29.6856 24.0908H28.9856ZM19.7845 12.5455L19.854 11.849C19.8309 11.8467 19.8077 11.8455 19.7845 11.8455V12.5455ZM19.7827 12.5455L19.7131 11.849C19.3419 11.8861 19.065 12.2078 19.0836 12.5804C19.1022 12.9529 19.4097 13.2455 19.7827 13.2455V12.5455ZM19.7836 12.5454L19.8532 13.2419C20.2111 13.2062 20.4836 12.905 20.4836 12.5454C20.4836 12.1858 20.2111 11.8847 19.8532 11.8489L19.7836 12.5454ZM19.7827 12.5453V11.8453C19.4097 11.8453 19.1022 12.1379 19.0836 12.5105C19.065 12.883 19.3419 13.2047 19.7131 13.2419L19.7827 12.5453ZM38.1885 12.5455V13.2455C38.5617 13.2455 38.8693 12.9527 38.8877 12.5799C38.906 12.2071 38.6287 11.8855 38.2573 11.8489L38.1885 12.5455ZM38.1877 12.5454L38.1189 11.8488C37.7607 11.8841 37.4877 12.1854 37.4877 12.5454C37.4877 12.9054 37.7607 13.2067 38.1189 13.242L38.1877 12.5454ZM38.1868 12.5455V11.8455C38.1635 11.8455 38.1403 11.8467 38.1172 11.849L38.1868 12.5455ZM28.9856 24.0908H28.2856C28.2856 24.4658 28.5811 24.7741 28.9557 24.7902C29.3303 24.8062 29.651 24.5243 29.6831 24.1507L28.9856 24.0908ZM28.9856 1L29.6831 0.940131C29.651 0.566559 29.3303 0.284593 28.9557 0.300642C28.5811 0.31669 28.2856 0.625054 28.2856 1L28.9856 1ZM38.1868 12.5453L38.1172 13.2419C38.1403 13.2442 38.1635 13.2453 38.1868 13.2453V12.5453ZM38.1885 12.5453L38.2573 13.2419C38.6287 13.2053 38.906 12.8837 38.8877 12.5109C38.8693 12.1381 38.5617 11.8453 38.1885 11.8453V12.5453ZM28.2882 0.940131C27.5839 9.144 22.1778 11.6028 19.7149 11.8488L19.854 13.2419C22.9142 12.9362 28.9151 10.0057 29.683 1.05987L28.2882 0.940131ZM29.6856 12.5453V1H28.2856V12.5453H29.6856ZM29.6856 12.5455V12.5453H28.2856V12.5455H29.6856ZM29.6856 24.0908V12.5455H28.2856V24.0908H29.6856ZM19.7149 13.242C22.1778 13.488 27.5839 15.9468 28.2882 24.1507L29.683 24.031C28.9151 15.0851 22.9142 12.1546 19.854 11.849L19.7149 13.242ZM19.7827 13.2455H19.7845V11.8455H19.7827V13.2455ZM19.7139 11.8489L19.7131 11.849L19.8524 13.242L19.8532 13.2419L19.7139 11.8489ZM19.7131 13.2419L19.7139 13.2419L19.8532 11.8489L19.8524 11.8488L19.7131 13.2419ZM19.7845 11.8453H19.7827V13.2453H19.7845V11.8453ZM38.2573 11.8489L38.2564 11.8488L38.1189 13.242L38.1198 13.2421L38.2573 11.8489ZM38.1868 13.2455H38.1885V11.8455H38.1868V13.2455ZM29.6831 24.1507C30.3873 15.9468 35.7935 13.488 38.2564 13.242L38.1172 11.849C35.057 12.1546 29.0561 15.0851 28.2882 24.031L29.6831 24.1507ZM28.2856 12.5455V24.0908H29.6856V12.5455H28.2856ZM28.2856 12.5453V12.5455H29.6856V12.5453H28.2856ZM28.2856 1V12.5453H29.6856V1H28.2856ZM38.2564 11.8488C35.7935 11.6028 30.3873 9.144 29.6831 0.940131L28.2882 1.05987C29.0561 10.0057 35.057 12.9362 38.1172 13.2419L38.2564 11.8488ZM38.1885 11.8453H38.1868V13.2453H38.1885V11.8453ZM38.2564 13.242L38.2573 13.2419L38.1198 11.8487L38.1189 11.8488L38.2564 13.242Z" fill="#D2FCFF"/>
</svg>
