<svg width="32" height="32" viewBox="0 0 32 32" fill="none" xmlns="http://www.w3.org/2000/svg">
<path d="M11.362 26.1585C20.796 26.1585 25.956 18.3425 25.956 11.5645C25.956 11.3425 25.956 11.1215 25.941 10.9015C26.9448 10.1754 27.8114 9.27641 28.5 8.24653C27.5639 8.66133 26.5708 8.93336 25.554 9.05353C26.6247 8.41251 27.4261 7.4043 27.809 6.21653C26.8022 6.81398 25.7006 7.23504 24.552 7.46153C23.7787 6.63921 22.7559 6.09469 21.6419 5.91224C20.5279 5.72978 19.3848 5.91956 18.3895 6.45221C17.3943 6.98485 16.6023 7.83067 16.1362 8.85876C15.6701 9.88686 15.5558 11.0399 15.811 12.1395C13.7718 12.0373 11.7768 11.5074 9.95564 10.5841C8.13448 9.66088 6.52784 8.36497 5.24 6.78053C4.58409 7.90969 4.3832 9.24639 4.67823 10.5185C4.97326 11.7905 5.74202 12.9024 6.828 13.6275C6.01174 13.6033 5.21328 13.3831 4.5 12.9855C4.5 13.0065 4.5 13.0285 4.5 13.0505C4.50032 14.2347 4.91026 15.3824 5.66028 16.2988C6.4103 17.2153 7.45423 17.844 8.615 18.0785C7.85987 18.2845 7.06758 18.3146 6.299 18.1665C6.62676 19.1857 7.26486 20.0769 8.12407 20.7156C8.98328 21.3543 10.0206 21.7084 11.091 21.7285C9.27474 23.156 7.03106 23.9309 4.721 23.9285C4.3129 23.9277 3.9052 23.903 3.5 23.8545C5.84564 25.3598 8.57491 26.1582 11.362 26.1545" fill="#3FAFF4"/>
</svg>
