<svg width="32" height="32" viewBox="0 0 32 32" fill="none" xmlns="http://www.w3.org/2000/svg">
<g clip-path="url(#clip0)">
<path d="M28.7761 9.5814C28.6253 9.01774 28.3282 8.50331 27.9144 8.08959C27.5007 7.67588 26.9848 7.37738 26.4185 7.22398C24.3337 6.66699 16.0003 6.66699 16.0003 6.66699C16.0003 6.66699 7.66699 6.66699 5.58214 7.22398C5.0158 7.37738 4.49995 7.67588 4.0862 8.08959C3.67245 8.50331 3.37533 9.01774 3.22457 9.5814C2.66699 11.6618 2.66699 16.0003 2.66699 16.0003C2.66699 16.0003 2.66699 20.3388 3.22457 22.4192C3.37533 22.9829 3.67245 23.4973 4.0862 23.9111C4.49995 24.3248 5.0158 24.6233 5.58214 24.7767C7.66699 25.3337 16.0003 25.3337 16.0003 25.3337C16.0003 25.3337 24.3337 25.3337 26.4185 24.7767C26.9848 24.6233 27.5007 24.3248 27.9144 23.9111C28.3282 23.4973 28.6253 22.9829 28.7761 22.4192C29.3337 20.3388 29.3337 16.0003 29.3337 16.0003C29.3337 16.0003 29.3337 11.6618 28.7761 9.5814Z" fill="#FB4747"/>
<path d="M13.2734 19.9397V12.0605L20.2431 16.0001L13.2734 19.9397Z" fill="#FEFEFE"/>
</g>
<defs>
<clipPath id="clip0">
<rect width="26.6667" height="18.6667" fill="white" transform="translate(2.66699 6.66699)"/>
</clipPath>
</defs>
</svg>
